<svg xmlns="http://www.w3.org/2000/svg" width="24" height="24" viewBox="0 0 24 24">
  <path fill="#333" fill-rule="evenodd" d="M169.727289,20.4992651 C169.622861,19.8812393 169.076733,16.8729496 167.731875,13.1803163 C171.041101,12.6511847 173.907215,13.558469 174.118892,13.6276089 C173.66308,16.4835087 172.027518,18.9457346 169.727289,20.4992651 L169.727289,20.4992651 L169.727289,20.4992651 Z M164.000706,22.248927 C161.519845,22.248927 159.245017,21.367041 157.471159,19.8995826 C157.606633,20.009642 157.701182,20.0787818 157.701182,20.0787818 C157.701182,20.0787818 159.665549,15.7949321 165.743517,13.6769945 C165.766096,13.6685284 165.790086,13.6628844 165.812665,13.6558293 C167.254895,17.4020813 167.849003,20.5401846 168.001411,21.4361808 C166.77227,21.9582574 165.418945,22.248927 164.000706,22.248927 L164.000706,22.248927 L164.000706,22.248927 Z M153.751279,11.9992945 C153.751279,11.8906461 153.756924,11.7834088 153.759746,11.6761714 C153.941789,11.6804045 159.005116,11.7946969 164.281531,10.2157681 C164.575057,10.7900523 164.855883,11.3756247 165.112718,11.958375 C164.977245,11.9950614 164.843182,12.035981 164.70912,12.0811335 C159.178691,13.8674819 156.373258,18.8427303 156.373258,18.8427303 C156.373258,18.8427303 156.377492,18.8469634 156.377492,18.8483744 C154.744752,17.0323946 153.751279,14.6322535 153.751279,11.9992945 L153.751279,11.9992945 L153.751279,11.9992945 Z M159.627448,2.73314128 C159.764332,2.91516256 161.659552,5.48462579 163.43341,8.63683932 C158.512612,9.94485273 154.24096,9.89264507 153.971424,9.88841202 C154.636091,6.7136222 156.768389,4.0820742 159.627448,2.73314128 L159.627448,2.73314128 L159.627448,2.73314128 Z M161.545246,2.05020871 C161.545246,2.05161973 161.543835,2.05303075 161.543835,2.05303075 C161.543835,2.05303075 161.531134,2.05585278 161.512789,2.05867482 C161.524078,2.05585278 161.533957,2.05444177 161.545246,2.05020871 L161.545246,2.05020871 L161.545246,2.05020871 Z M170.768742,4.31065906 C170.743341,4.34875654 169.284177,6.57110941 165.414712,8.02022459 C163.663433,4.80169322 161.738578,2.24492916 161.584759,2.04174261 C162.359499,1.85407725 163.168107,1.75248398 164.000706,1.75248398 C166.594461,1.75248398 168.963838,2.72044212 170.768742,4.31065906 L170.768742,4.31065906 L170.768742,4.31065906 Z M174.245899,11.8977012 C174.097724,11.8652478 170.629035,11.1188194 167.108132,11.561879 C167.03475,11.3869128 166.96278,11.2105356 166.886576,11.0341584 C166.673487,10.5318361 166.443464,10.0351579 166.204974,9.54694573 C170.252249,7.89464401 171.894867,5.51990123 171.914623,5.49168087 C173.351208,7.23710977 174.221909,9.46651773 174.245899,11.8977012 L174.245899,11.8977012 L174.245899,11.8977012 Z M175.757276,9.58504321 C175.599224,8.81462755 175.362145,8.05408901 175.055918,7.32882592 C174.756747,6.617673 174.382784,5.9319184 173.94955,5.29131636 C173.521962,4.6563584 173.028047,4.0580869 172.486153,3.5162561 C171.942847,2.97301429 171.345916,2.48056911 170.709473,2.05161973 C170.068795,1.61702628 169.38296,1.24592863 168.671723,0.943970839 C167.946375,0.639191017 167.187158,0.402140044 166.416652,0.245517079 C165.626389,0.0832500441 164.813547,0 164.000706,0 C163.186453,0 162.373611,0.0832500441 161.583348,0.245517079 C160.812842,0.402140044 160.053625,0.639191017 159.328277,0.943970839 C158.61704,1.24592863 157.931205,1.61702628 157.289116,2.05161973 C156.654084,2.48056911 156.057153,2.97301429 155.513847,3.5162561 C154.971953,4.0580869 154.47945,4.6563584 154.05045,5.29131636 C153.617216,5.9319184 153.243253,6.617673 152.944082,7.32882592 C152.636444,8.05408901 152.400776,8.81462755 152.242724,9.58504321 C152.081849,10.3738021 152,11.1865483 152,11.9992945 C152,12.8148627 152.081849,13.6276089 152.242724,14.4177788 C152.400776,15.1881945 152.636444,15.947322 152.944082,16.6711741 C153.243253,17.382327 153.617216,18.0709036 154.05045,18.7115057 C154.47945,19.3464636 154.971953,19.9419131 155.513847,20.4865659 C156.057153,21.0283967 156.654084,21.5194309 157.289116,21.9497913 C157.931205,22.3829737 158.61704,22.7554824 159.328277,23.0560292 C160.053625,23.363631 160.812842,23.59786 161.583348,23.7544829 C162.373611,23.918161 163.186453,24 164.000706,24 C164.813547,24 165.626389,23.918161 166.416652,23.7544829 C167.187158,23.59786 167.946375,23.363631 168.671723,23.0560292 C169.38296,22.7554824 170.068795,22.3829737 170.709473,21.9497913 C171.345916,21.5194309 171.942847,21.0283967 172.486153,20.4865659 C173.028047,19.9419131 173.521962,19.3464636 173.94955,18.7115057 C174.382784,18.0709036 174.756747,17.382327 175.055918,16.6711741 C175.362145,15.947322 175.599224,15.1881945 175.757276,14.4177788 C175.918151,13.6276089 176,12.8148627 176,11.9992945 C176,11.1865483 175.918151,10.3738021 175.757276,9.58504321 L175.757276,9.58504321 L175.757276,9.58504321 Z" transform="translate(-152)"/>
</svg>
