<svg xmlns="http://www.w3.org/2000/svg" width="24" height="24" viewBox="0 0 24 24">
  <path fill="#333" fill-rule="evenodd" d="M114.000024,0 C117.259004,0 117.667657,0.0138138818 118.947585,0.0722132578 C120.224845,0.130469732 121.097168,0.333343257 121.860456,0.630008276 C122.649562,0.936628817 123.318773,1.34694874 123.985936,2.01406396 C124.653051,2.68122682 125.063371,3.35043794 125.370039,4.13954402 C125.666657,4.90283244 125.86953,5.77515526 125.927787,7.05241535 C125.986186,8.33234294 126,8.74099567 126,12.0000238 C126,15.2590043 125.986186,15.6676571 125.927787,16.9475847 C125.86953,18.2248447 125.666657,19.0971676 125.370039,19.860456 C125.063371,20.6495621 124.653051,21.3187732 123.985936,21.985936 C123.318773,22.6530513 122.649562,23.0633712 121.860456,23.3700394 C121.097168,23.6666567 120.224845,23.8695303 118.947585,23.9277867 C117.667657,23.9861861 117.259004,24 114.000024,24 C110.740996,24 110.332343,23.9861861 109.052415,23.9277867 C107.775155,23.8695303 106.902832,23.6666567 106.139544,23.3700394 C105.350438,23.0633712 104.681227,22.6530513 104.014064,21.985936 C103.346949,21.3187732 102.936629,20.6495621 102.630008,19.860456 C102.333343,19.0971676 102.13047,18.2248447 102.072213,16.9475847 C102.013814,15.6676571 102,15.2590043 102,12.0000238 C102,8.74099567 102.013814,8.33234294 102.072213,7.05241535 C102.13047,5.77515526 102.333343,4.90283244 102.630008,4.13954402 C102.936629,3.35043794 103.346949,2.68122682 104.014064,2.01406396 C104.681227,1.34694874 105.350438,0.936628817 106.139544,0.630008276 C106.902832,0.333343257 107.775155,0.130469732 109.052415,0.0722132578 C110.332343,0.0138138818 110.740996,0 114.000024,0 Z M114.000024,2.1621583 C110.79587,2.1621583 110.416322,2.17440026 109.15097,2.23213276 C107.980982,2.28548292 107.345591,2.48097316 106.922743,2.64531072 C106.362614,2.86299845 105.962869,3.12303286 105.542975,3.54297487 C105.123033,3.96286924 104.862998,4.3626144 104.645311,4.92274348 C104.480973,5.34559117 104.285483,5.9809821 104.232133,7.15097025 C104.1744,8.41632182 104.162158,8.79587013 104.162158,12.0000238 C104.162158,15.2041299 104.1744,15.5836782 104.232133,16.8490298 C104.285483,18.0190179 104.480973,18.6544088 104.645311,19.0772565 C104.862998,19.6373856 105.12308,20.0371308 105.542975,20.4570251 C105.962869,20.8769671 106.362614,21.1370016 106.922743,21.3546893 C107.345591,21.5190268 107.980982,21.7145171 109.15097,21.7678672 C110.416179,21.8255997 110.795632,21.8378417 114.000024,21.8378417 C117.204368,21.8378417 117.583869,21.8255997 118.84903,21.7678672 C120.019018,21.7145171 120.654409,21.5190268 121.077257,21.3546893 C121.637386,21.1370016 122.037131,20.8769671 122.457025,20.4570251 C122.876967,20.0371308 123.137002,19.6373856 123.354689,19.0772565 C123.519027,18.6544088 123.714517,18.0190179 123.767867,16.8490298 C123.8256,15.5836782 123.837842,15.2041299 123.837842,12.0000238 C123.837842,8.79587013 123.8256,8.41632182 123.767867,7.15097025 C123.714517,5.9809821 123.519027,5.34559117 123.354689,4.92274348 C123.137002,4.3626144 122.876967,3.96286924 122.457025,3.54297487 C122.037131,3.12303286 121.637386,2.86299845 121.077257,2.64531072 C120.654409,2.48097316 120.019018,2.28548292 118.84903,2.23213276 C117.583678,2.17440026 117.20413,2.1621583 114.000024,2.1621583 Z M114.000024,5.8378417 C117.403288,5.8378417 120.162158,8.59671206 120.162158,12.0000238 C120.162158,15.4032879 117.403288,18.1621583 114.000024,18.1621583 C110.596712,18.1621583 107.837842,15.4032879 107.837842,12.0000238 C107.837842,8.59671206 110.596712,5.8378417 114.000024,5.8378417 Z M114.000024,16 C116.209149,16 118,14.2091493 118,12.0000238 C118,9.79085069 116.209149,8 114.000024,8 C111.790851,8 110,9.79085069 110,12.0000238 C110,14.2091493 111.790851,16 114.000024,16 Z M121.845642,5.59438394 C121.845642,6.38968246 121.200915,7.03436203 120.405616,7.03436203 C119.610365,7.03436203 118.965638,6.38968246 118.965638,5.59438394 C118.965638,4.79908543 119.610365,4.15435822 120.405616,4.15435822 C121.200915,4.15435822 121.845642,4.79908543 121.845642,5.59438394 Z" transform="translate(-102)"/>
</svg>
