<svg xmlns="http://www.w3.org/2000/svg" width="24" height="24" viewBox="0 0 24 24">
  <path fill="#333" fill-rule="evenodd" d="M75,4.36764175 C74.1181546,4.76923077 73.1686917,5.04080896 72.1727417,5.1621524 C73.1898222,4.5381004 73.9702412,3.54857349 74.3379116,2.3698086 C73.3856313,2.94763453 72.3333333,3.36800289 71.2091918,3.593355 C70.3132594,2.61249549 69.0327522,2 67.6156013,2 C64.8982215,2 62.693608,4.26074395 62.693608,7.04875406 C62.693608,7.44456482 62.735869,7.82881907 62.8203909,8.19862766 C58.7281211,7.9877212 55.100722,5.97977609 52.6707167,2.92163236 C52.2466984,3.66991694 52.0044022,4.5381004 52.0044022,5.46262189 C52.0044022,7.21343445 52.8735693,8.75911882 54.1949287,9.66486096 C53.389153,9.64030336 52.6284557,9.41061755 51.9635499,9.0350307 L51.9635499,9.09714698 C51.9635499,11.5442398 53.6610319,13.5854099 55.9149498,14.0476706 C55.5022011,14.166125 55.0669132,14.2253521 54.6175383,14.2253521 C54.3005811,14.2253521 53.9906674,14.1950163 53.6906145,14.1357891 C54.3174855,16.1408451 56.1347068,17.6013001 58.2900158,17.6403034 C56.6052122,18.9953052 54.4808945,19.8028169 52.1748547,19.8028169 C51.7776017,19.8028169 51.3845747,19.7797039 51,19.7334778 C53.1792569,21.163597 55.7684451,22 58.5478077,22 C67.6057404,22 72.5573164,14.3076923 72.5573164,7.63524738 C72.5573164,7.41567353 72.5530903,7.19609967 72.5446381,6.98085952 C73.5067794,6.26868906 74.3421377,5.38028169 75,4.36764175" transform="translate(-51)"/>
</svg>
