<svg xmlns="http://www.w3.org/2000/svg" width="24" height="24" viewBox="0 0 24 24">
  <path fill="#333" fill-rule="evenodd" d="M219.335884,7.30301624 L225.691498,7.30301624 L225.691498,5.48213457 L219.335884,5.48213457 L219.335884,7.30301624 L219.335884,7.30301624 Z M220.841532,11.2761021 C220.436545,11.6881671 220.181135,12.2464037 220.076714,12.9508121 L225.019813,12.9508121 C224.967602,12.1990719 224.710781,11.6310905 224.256405,11.2399072 C223.796385,10.8515081 223.230532,10.6580046 222.553202,10.6580046 C221.819428,10.6580046 221.246519,10.8640371 220.841532,11.2761021 L220.841532,11.2761021 L220.841532,11.2761021 Z M225.13129,8.83155452 C225.89752,9.16844548 226.528283,9.70301624 227.024992,10.4324826 C227.477957,11.0756381 227.768644,11.8218097 227.901288,12.6696056 C227.978899,13.1651972 228.009943,13.8835267 227.997243,14.8176334 L220.006158,14.8176334 C220.054136,15.9020882 220.432312,16.6635731 221.154798,17.0993039 C221.59224,17.3707657 222.118582,17.5071926 222.736646,17.5071926 C223.387165,17.5071926 223.919151,17.3415313 224.32696,17.0116009 C224.551326,16.8320186 224.748881,16.5842227 224.918213,16.2668213 L227.846255,16.2668213 C227.768644,16.9071926 227.413046,17.5600928 226.783693,18.2227378 C225.801565,19.2737819 224.425738,19.8 222.657624,19.8 C221.197131,19.8 219.908792,19.3573086 218.795431,18.4691415 C217.676425,17.5823666 217.12045,16.137355 217.12045,14.1382831 C217.12045,12.263109 217.624214,10.825058 218.630332,9.82412993 C219.639271,8.82598608 220.944543,8.32343387 222.551791,8.32343387 C223.507109,8.32343387 224.366471,8.49327146 225.13129,8.83155452 L225.13129,8.83155452 L225.13129,8.83155452 Z M206.956264,12.9897912 L206.956264,16.8918794 L210.557403,16.8918794 C211.200866,16.8918794 211.70322,16.8055684 212.060229,16.6343387 C212.710748,16.3141531 213.035302,15.7071926 213.035302,14.8078886 C213.035302,14.0450116 212.722037,13.5229698 212.091273,13.237587 C211.738497,13.0788863 211.243199,12.9953596 210.608202,12.9897912 L206.956264,12.9897912 L206.956264,12.9897912 Z M206.956264,7.34060325 L206.956264,10.5689095 L210.563047,10.5689095 C211.2051,10.5689095 211.728619,10.4477958 212.132195,10.2055684 C212.532949,9.96334107 212.734737,9.53457077 212.734737,8.92204176 C212.734737,8.23851508 212.469449,7.78886311 211.938874,7.56890951 C211.478854,7.41716937 210.894657,7.34060325 210.184871,7.34060325 L206.956264,7.34060325 L206.956264,7.34060325 Z M215.010848,6.35916473 C215.463813,6.98143852 215.691001,7.72482599 215.691001,8.59211137 C215.691001,9.48445476 215.463813,10.2041763 215.005204,10.7470998 C214.748383,11.05058 214.371618,11.3290023 213.873498,11.5795824 C214.62985,11.8524362 215.199936,12.2825986 215.58799,12.8714617 C215.971811,13.4589327 216.165132,14.174478 216.165132,15.0153132 C216.165132,15.8825986 215.945,16.6607889 215.503324,17.3484919 C215.223925,17.8037123 214.873971,18.187935 214.453462,18.499768 C213.980742,18.8575406 213.423356,19.1011601 212.778481,19.2348028 C212.133606,19.3670534 211.436521,19.4310905 210.682991,19.4310905 L204,19.4310905 L204,4.8 L211.167,4.8 C212.976036,4.82645012 214.255908,5.34570766 215.010848,6.35916473 L215.010848,6.35916473 L215.010848,6.35916473 Z" transform="translate(-204)"/>
</svg>
