<svg xmlns="http://www.w3.org/2000/svg" width="24" height="24" viewBox="0 0 24 24">
  <path fill="#333" fill-rule="evenodd" d="M330,23.8181818 L324.695673,23.8181818 L324.695673,16.1482184 C324.695673,14.140616 323.865945,12.7700816 322.041392,12.7700816 C320.645814,12.7700816 319.869708,13.6949478 319.508467,14.5862842 C319.373001,14.9062153 319.394167,15.3518834 319.394167,15.7975516 L319.394167,23.8181818 L314.139229,23.8181818 C314.139229,23.8181818 314.206961,10.2315891 314.139229,8.99657134 L319.394167,8.99657134 L319.394167,11.3227078 C319.70461,10.3056343 321.383819,8.85406928 324.0635,8.85406928 C327.388053,8.85406928 330,10.9860117 330,15.5768131 L330,23.8181818 L330,23.8181818 Z M308.825024,7.14264758 L308.791157,7.14264758 C307.097836,7.14264758 306,6.00961656 306,4.57341941 C306,3.10928068 307.130292,2 308.857479,2 C310.583255,2 311.644403,3.10648652 311.678269,4.56922817 C311.678269,6.00542532 310.583255,7.14264758 308.825024,7.14264758 L308.825024,7.14264758 L308.825024,7.14264758 Z M306.605362,8.99657134 L311.283161,8.99657134 L311.283161,23.8181818 L306.605362,23.8181818 L306.605362,8.99657134 L306.605362,8.99657134 Z" transform="translate(-306 -1)"/>
</svg>
