<svg id="Layer_1" data-name="Layer 1" xmlns="http://www.w3.org/2000/svg" viewBox="0 0 221.78 40.98" height="45" width="243.5"><defs><style>.cls-1{fill:#231f20;}.cls-2{fill:#fff;}</style></defs><title>dcont-logo-v1-horiz-black</title><rect width="89.64" height="40.98"/><path class="cls-1" d="M103.42,12a7.19,7.19,0,0,1,7,5.06h-3a4.19,4.19,0,0,0-4-2.64c-3,0-5.17,2.37-5.17,6.18s2.17,6.2,5.17,6.2a4.19,4.19,0,0,0,4-2.64h3a7.19,7.19,0,0,1-7,5c-4.26,0-7.71-3.54-7.71-8.6S99.16,12,103.42,12Z" transform="translate(-0.24 0.2)"/><path class="cls-1" d="M118.25,29.24c-3.41,0-6-2.71-6-6.9s2.69-6.89,6.1-6.89,6.1,2.69,6.1,6.89S121.68,29.24,118.25,29.24Zm0-2.4c1.85,0,3.67-1.48,3.67-4.5s-1.76-4.49-3.6-4.49-3.54,1.46-3.54,4.49S116.38,26.84,118.25,26.84Z" transform="translate(-0.24 0.2)"/><path class="cls-1" d="M135.14,21.56c0-2.45-1.19-3.71-3-3.71s-3,1.26-3,3.71V29h-2.48V15.67h2.48V17.2a4.41,4.41,0,0,1,3.56-1.75c2.8,0,4.91,2,4.91,5.7V29h-2.46Z" transform="translate(-0.24 0.2)"/><path class="cls-1" d="M140.88,17.93h-1.41V15.67h1.41V12.35h2.49v3.32h2.91v2.26h-2.91v7.39c0,1,.35,1.4,1.39,1.4h1.52V29h-1.95c-2.13,0-3.45-1-3.45-3.7Z" transform="translate(-0.24 0.2)"/><path class="cls-1" d="M150.78,29H148.3V15.67h2.48v1.94a3.83,3.83,0,0,1,3.58-2.16v2.86h-.63c-1.82,0-2.95.85-2.95,3.69Z" transform="translate(-0.24 0.2)"/><path class="cls-1" d="M161.2,15.45a4.93,4.93,0,0,1,4.15,2.16V15.67h2.5V29h-2.5V27a5,5,0,0,1-4.19,2.2c-3.11,0-5.6-2.83-5.6-6.95S158.05,15.45,161.2,15.45Zm.52,2.4c-1.84,0-3.62,1.55-3.62,4.44s1.78,4.55,3.62,4.55,3.63-1.62,3.63-4.5S163.59,17.85,161.72,17.85Z" transform="translate(-0.24 0.2)"/><path class="cls-1" d="M175.88,15.45a5.32,5.32,0,0,1,5.52,4.44h-2.67a2.83,2.83,0,0,0-2.85-2.11c-2,0-3.32,1.65-3.32,4.56s1.32,4.58,3.32,4.58a2.76,2.76,0,0,0,2.85-2.11h2.67a5.49,5.49,0,0,1-5.52,4.43c-3.43,0-5.86-2.71-5.86-6.9S172.45,15.45,175.88,15.45Z" transform="translate(-0.24 0.2)"/><path class="cls-1" d="M184,17.93h-1.41V15.67H184V12.35h2.5v3.32h2.91v2.26H186.5v7.39c0,1,.35,1.4,1.39,1.4h1.52V29h-1.95c-2.13,0-3.46-1-3.46-3.7Z" transform="translate(-0.24 0.2)"/><path class="cls-1" d="M196.62,29.24c-3.41,0-6-2.71-6-6.9s2.69-6.89,6.1-6.89,6.1,2.69,6.1,6.89S200.05,29.24,196.62,29.24Zm0-2.4c1.85,0,3.67-1.48,3.67-4.5s-1.76-4.49-3.61-4.49-3.53,1.46-3.53,4.49S194.75,26.84,196.62,26.84Z" transform="translate(-0.24 0.2)"/><path class="cls-1" d="M207.5,29H205V15.67h2.48v1.94a3.83,3.83,0,0,1,3.58-2.16v2.86h-.63c-1.82,0-2.95.85-2.95,3.69Z" transform="translate(-0.24 0.2)"/><path class="cls-1" d="M217.44,29.24c-2.86,0-4.88-1.89-5-4.31H215a2.25,2.25,0,0,0,2.39,2c1.43,0,2.19-.68,2.19-1.6,0-2.62-6.94-1.12-6.94-6,0-2.14,1.78-3.86,4.6-3.86a4.27,4.27,0,0,1,4.62,4.29H219.4a2.05,2.05,0,0,0-2.24-2c-1.32,0-2,.61-2,1.5,0,2.69,6.76,1.19,6.89,6C222,27.55,220.27,29.24,217.44,29.24Z" transform="translate(-0.24 0.2)"/><path class="cls-2" d="M21.05,20.69c0,4.95-3.11,8.56-8,8.56H7V12.16h6.06C17.94,12.16,21.05,15.68,21.05,20.69Zm-8.32,4.37c2.45,0,4-1.56,4-4.37s-1.54-4.41-4-4.41H11.25v8.78Z" transform="translate(-0.24 0.2)"/><path class="cls-2" d="M27.21,29.25H23V15.65h4.25v2.4a4.77,4.77,0,0,1,3.93-2.52V20.6H30c-1.76,0-2.74.63-2.74,2.71Z" transform="translate(-0.24 0.2)"/><path class="cls-2" d="M45.13,29.25H40.85V27.31a4.21,4.21,0,0,1-3.69,2.06c-2.82,0-4.58-2.23-4.58-5.82v-7.9h4.23V23c0,1.57.81,2.49,2,2.49s2-.92,2-2.49v-7.3h4.28Z" transform="translate(-0.24 0.2)"/><path class="cls-2" d="M55.38,15.48c2.91,0,5.19,2.62,5.19,7s-2.28,7-5.19,7a3.9,3.9,0,0,1-3.56-2.06v8.38H47.56V15.65h4.26v1.89A3.85,3.85,0,0,1,55.38,15.48ZM54,19.63c-1.19,0-2.21,1-2.21,2.81s1,2.83,2.21,2.83,2.22-1,2.22-2.83S55.23,19.63,54,19.63Z" transform="translate(-0.24 0.2)"/><path class="cls-2" d="M66.82,15.48a3.85,3.85,0,0,1,3.59,2.06V15.65h4.25v13.6H70.41V27.36a3.87,3.87,0,0,1-3.59,2.06c-2.89,0-5.19-2.64-5.19-7S63.93,15.48,66.82,15.48Zm1.37,4.15c-1.22,0-2.21,1-2.21,2.81s1,2.83,2.21,2.83,2.22-1,2.22-2.83S69.38,19.63,68.19,19.63Z" transform="translate(-0.24 0.2)"/><path class="cls-2" d="M77.09,11.32h4.26V29.25H77.09Z" transform="translate(-0.24 0.2)"/></svg>