<svg id="Layer_1" data-name="Layer 1" xmlns="http://www.w3.org/2000/svg" viewBox="0 0 279.83 44.11"><defs><style>.cls-1{fill:#002938;}.cls-2{fill:#00b9ff;}.cls-3{fill:#095d98;}.cls-4{fill:#fff;}</style></defs><title>dcont-logo-2019</title><g id="Logo"><g id="Logo-2"><path id="Path_398" data-name="Path 398" class="cls-1" d="M66.34,20.79a8,8,0,0,1,3.48.73,7.86,7.86,0,0,1,2.65,2,9.31,9.31,0,0,1,1.68,3.09,12.7,12.7,0,0,1,.59,3.91A11.62,11.62,0,0,1,74,34.84a7.62,7.62,0,0,1-4.75,4.59,9.73,9.73,0,0,1-3.21.48H58.87V20.79ZM69.64,35a7.33,7.33,0,0,0,1.16-4.44,10,10,0,0,0-.31-2.61,5.85,5.85,0,0,0-.93-2.05A4.48,4.48,0,0,0,68,24.57a4.86,4.86,0,0,0-2.16-.47h-3.1V36.57h3A4.47,4.47,0,0,0,69.64,35Z" transform="translate(-3 -6)"/><path id="Path_399" data-name="Path 399" class="cls-1" d="M80,28.38a5.17,5.17,0,0,1,1.39-1.76,3.19,3.19,0,0,1,2-.59,2.51,2.51,0,0,1,.86.11v3.18h-.08a3.81,3.81,0,0,0-3,.78,3.87,3.87,0,0,0-1.15,3.13v6.69H76.41V26.19h3.51v2.19Z" transform="translate(-3 -6)"/><path id="Path_400" data-name="Path 400" class="cls-1" d="M93.85,38.31h-.08a5.4,5.4,0,0,1-1.59,1.46,4.66,4.66,0,0,1-2.35.52A4.53,4.53,0,0,1,86.3,39a5.11,5.11,0,0,1-1.23-3.61V26.19h3.61v8.54a2.77,2.77,0,0,0,.55,1.84,2.15,2.15,0,0,0,1.73.64,2.48,2.48,0,0,0,2-.87,3.28,3.28,0,0,0,.73-2.23V26.19h3.64V39.92h-3.5Z" transform="translate(-3 -6)"/><path id="Path_401" data-name="Path 401" class="cls-1" d="M102.89,26.19V27.9H103a5.91,5.91,0,0,1,1.65-1.5,4.66,4.66,0,0,1,2.39-.59,5.53,5.53,0,0,1,2.47.54,5.64,5.64,0,0,1,1.88,1.48,6.54,6.54,0,0,1,1.2,2.29,10.65,10.65,0,0,1,0,5.95,6.58,6.58,0,0,1-1.22,2.29,5.43,5.43,0,0,1-1.88,1.45,5.73,5.73,0,0,1-2.41.51,4.9,4.9,0,0,1-2.41-.54,4.32,4.32,0,0,1-1.55-1.42H103v6H99.39V26.19Zm5.58,10a5,5,0,0,0,.82-3,6.07,6.07,0,0,0-.74-3.18,2.59,2.59,0,0,0-2.42-1.23,2.77,2.77,0,0,0-1.46.35,2.94,2.94,0,0,0-1,.93,4.16,4.16,0,0,0-.56,1.4,7.75,7.75,0,0,0-.17,1.73,4.86,4.86,0,0,0,.84,3,2.9,2.9,0,0,0,2.48,1.12,2.6,2.6,0,0,0,2.2-1.08Z" transform="translate(-3 -6)"/><path id="Path_402" data-name="Path 402" class="cls-1" d="M122.68,39.27a6.49,6.49,0,0,1-.16-.88h0a5.39,5.39,0,0,1-.6.74,3.43,3.43,0,0,1-.8.57,4.59,4.59,0,0,1-1.11.39,7.22,7.22,0,0,1-1.53.15A5.4,5.4,0,0,1,115,39.17,3.77,3.77,0,0,1,113.64,36a3.9,3.9,0,0,1,.43-1.9,3.65,3.65,0,0,1,1.18-1.29,6.15,6.15,0,0,1,1.75-.79,17.82,17.82,0,0,1,2.15-.44,15.63,15.63,0,0,0,2.52-.51,1,1,0,0,0,.8-1,1.43,1.43,0,0,0-.58-1.19,2.83,2.83,0,0,0-1.72-.44,3.27,3.27,0,0,0-1.93.47,1.86,1.86,0,0,0-.72,1.46h-3.24a4.3,4.3,0,0,1,.4-1.73,4,4,0,0,1,1.1-1.43,5.47,5.47,0,0,1,1.82-1,8.19,8.19,0,0,1,2.6-.38c2,0,3.52.45,4.42,1.33A5,5,0,0,1,126,30.9v7c0,1,.16,1.67.48,1.9v.14H123A1.78,1.78,0,0,1,122.68,39.27Zm-2-1.8a3.52,3.52,0,0,0,1-.59,2.32,2.32,0,0,0,.63-.83,2.38,2.38,0,0,0,.22-1V33a4.22,4.22,0,0,1-1.17.47l-1.37.34a7,7,0,0,0-2.14.74,1.79,1.79,0,0,0-.33,2.51,1.7,1.7,0,0,0,.22.24,2.82,2.82,0,0,0,1.55.39,4,4,0,0,0,1.38-.23Z" transform="translate(-3 -6)"/><path id="Path_403" data-name="Path 403" class="cls-1" d="M131.61,20.79V39.92H128V20.79Z" transform="translate(-3 -6)"/><path id="Path_404" data-name="Path 404" class="cls-1" d="M143.47,39.58a8.4,8.4,0,0,1-2.91-2.06,9.4,9.4,0,0,1-1.9-3.13,11.21,11.21,0,0,1-.69-4,11.82,11.82,0,0,1,.65-4,9.37,9.37,0,0,1,1.83-3.18,8.3,8.3,0,0,1,2.89-2.12,9.23,9.23,0,0,1,3.81-.76,9.68,9.68,0,0,1,3.16.5,7.3,7.3,0,0,1,2.39,1.37,6.47,6.47,0,0,1,1.6,2,7.56,7.56,0,0,1,.74,2.55h-3.85a3.79,3.79,0,0,0-1.31-2.32,4.13,4.13,0,0,0-2.73-.87,4.86,4.86,0,0,0-2.31.52,4.67,4.67,0,0,0-1.62,1.44,6.46,6.46,0,0,0-1,2.14,10.67,10.67,0,0,0-.33,2.64,9.78,9.78,0,0,0,.37,2.7,6.31,6.31,0,0,0,1,2.13,4.68,4.68,0,0,0,3.84,1.89,4.25,4.25,0,0,0,2.82-.93,3.61,3.61,0,0,0,1.3-2.44h3.8a6.9,6.9,0,0,1-.61,2.44,6.75,6.75,0,0,1-1.5,2.08,7.36,7.36,0,0,1-2.4,1.48,10.2,10.2,0,0,1-7.12-.19Z" transform="translate(-3 -6)"/><path id="Path_405" data-name="Path 405" class="cls-1" d="M160.08,39.76a6.83,6.83,0,0,1-3.73-3.84,8,8,0,0,1,0-5.7,6.77,6.77,0,0,1,3.73-3.84,7.83,7.83,0,0,1,5.83,0,6.79,6.79,0,0,1,3.74,3.84,8.11,8.11,0,0,1,0,5.7,6.85,6.85,0,0,1-3.74,3.84A7.83,7.83,0,0,1,160.08,39.76Zm5.5-3.46a5.37,5.37,0,0,0,.9-3.23,5.43,5.43,0,0,0-.9-3.25,3.29,3.29,0,0,0-4.64-.53,2.9,2.9,0,0,0-.52.53,5.36,5.36,0,0,0-.9,3.25,5.3,5.3,0,0,0,.9,3.23,3.31,3.31,0,0,0,4.67.49A2.84,2.84,0,0,0,165.58,36.3Z" transform="translate(-3 -6)"/><path id="Path_406" data-name="Path 406" class="cls-1" d="M175.16,28.06a4.83,4.83,0,0,1,1.68-1.68,5.2,5.2,0,0,1,4.33-.18,4.53,4.53,0,0,1,1.49,1.07,5,5,0,0,1,1,1.62A5.8,5.8,0,0,1,184,31v9h-3.64V31.49a2.62,2.62,0,0,0-.62-1.82A2.2,2.2,0,0,0,178,29a2.59,2.59,0,0,0-2,.87,3.33,3.33,0,0,0-.79,2.28v7.79h-3.63V26.19h3.56v1.87Z" transform="translate(-3 -6)"/><path id="Path_407" data-name="Path 407" class="cls-1" d="M186.55,26.19V21.91h3.56v4.28h2.36V28.6h-2.36v7.28a1.35,1.35,0,0,0,.38,1.07,1.56,1.56,0,0,0,1,.29h.7a2.31,2.31,0,0,0,.37,0v2.68a5.43,5.43,0,0,1-.59,0,7.1,7.1,0,0,1-.72,0h-1a5.87,5.87,0,0,1-1.32-.15,3.25,3.25,0,0,1-1.19-.52,2.73,2.73,0,0,1-.87-1,3.62,3.62,0,0,1-.34-1.61v-8h-1.9V26.19Z" transform="translate(-3 -6)"/><path id="Path_408" data-name="Path 408" class="cls-1" d="M197.42,28.38a5.2,5.2,0,0,1,1.4-1.76,3.17,3.17,0,0,1,2-.59,2.46,2.46,0,0,1,.85.11v3.18h-.08a3.79,3.79,0,0,0-2.94.78,3.84,3.84,0,0,0-1.15,3.13v6.69h-3.64V26.19h3.5v2.19Z" transform="translate(-3 -6)"/><path id="Path_409" data-name="Path 409" class="cls-1" d="M210.91,39.27a5.24,5.24,0,0,1-.16-.88h-.06a4.23,4.23,0,0,1-.6.74,3.06,3.06,0,0,1-.8.57,4.31,4.31,0,0,1-1.11.39,7.06,7.06,0,0,1-1.52.15,5.4,5.4,0,0,1-3.45-1.07A3.77,3.77,0,0,1,201.87,36a3.9,3.9,0,0,1,.43-1.9,3.65,3.65,0,0,1,1.18-1.29,6,6,0,0,1,1.75-.79,17.06,17.06,0,0,1,2.15-.44,15.63,15.63,0,0,0,2.52-.51,1,1,0,0,0,.8-1,1.43,1.43,0,0,0-.58-1.19,2.83,2.83,0,0,0-1.72-.44,3.27,3.27,0,0,0-1.93.47,1.89,1.89,0,0,0-.72,1.46h-3.24a4.3,4.3,0,0,1,.4-1.73,4.16,4.16,0,0,1,1.1-1.43,5.47,5.47,0,0,1,1.82-1,8.19,8.19,0,0,1,2.6-.38c2,0,3.53.45,4.43,1.33a5,5,0,0,1,1.35,3.73v7c0,1,.16,1.67.48,1.9v.14h-3.51A2,2,0,0,1,210.91,39.27Zm-2-1.8a3.45,3.45,0,0,0,1-.59,2.44,2.44,0,0,0,.63-.83,2.37,2.37,0,0,0,.21-1V33a4,4,0,0,1-1.16.47l-1.38.34a7.06,7.06,0,0,0-2.14.74,1.79,1.79,0,0,0-.32,2.51,1.64,1.64,0,0,0,.21.24,2.83,2.83,0,0,0,1.56.39,4,4,0,0,0,1.37-.23Z" transform="translate(-3 -6)"/><path id="Path_410" data-name="Path 410" class="cls-1" d="M219.5,39.76a6.78,6.78,0,0,1-2.21-1.54,7,7,0,0,1-1.4-2.3,8.45,8.45,0,0,1,0-5.7,6.89,6.89,0,0,1,1.37-2.3,6.47,6.47,0,0,1,2.16-1.54,6.88,6.88,0,0,1,2.83-.56,7.27,7.27,0,0,1,2.41.37,6,6,0,0,1,1.86,1,5.46,5.46,0,0,1,1.29,1.58,7,7,0,0,1,.68,2.05h-3.56a2.78,2.78,0,0,0-.84-1.51,2.35,2.35,0,0,0-1.68-.6,2.84,2.84,0,0,0-2.48,1.16,5.38,5.38,0,0,0-.83,3.17,5.55,5.55,0,0,0,.79,3.15,2.76,2.76,0,0,0,2.47,1.19,2.93,2.93,0,0,0,1.85-.58,2.68,2.68,0,0,0,.91-1.75h3.5a5.54,5.54,0,0,1-1.81,3.71,5.89,5.89,0,0,1-1.9,1.12,6.93,6.93,0,0,1-2.47.41A7.35,7.35,0,0,1,219.5,39.76Z" transform="translate(-3 -6)"/><path id="Path_411" data-name="Path 411" class="cls-1" d="M230.68,26.19V21.91h3.56v4.28h2.35V28.6h-2.35v7.28a1.3,1.3,0,0,0,.37,1.07,1.6,1.6,0,0,0,1,.29h.7a2.43,2.43,0,0,0,.38,0v2.68a5.53,5.53,0,0,1-.59,0q-.3,0-.72,0h-1a5.87,5.87,0,0,1-1.32-.15,3.18,3.18,0,0,1-1.19-.52,2.73,2.73,0,0,1-.87-1,3.49,3.49,0,0,1-.34-1.61v-8h-1.9V26.19Z" transform="translate(-3 -6)"/><path id="Path_412" data-name="Path 412" class="cls-1" d="M241.13,39.76a6.8,6.8,0,0,1-3.73-3.84,8,8,0,0,1,0-5.7,6.74,6.74,0,0,1,3.73-3.84,7.83,7.83,0,0,1,5.83,0,6.79,6.79,0,0,1,3.74,3.84,8.11,8.11,0,0,1,0,5.7A6.85,6.85,0,0,1,247,39.76,7.83,7.83,0,0,1,241.13,39.76Zm5.5-3.46a5.37,5.37,0,0,0,.9-3.23,5.43,5.43,0,0,0-.9-3.25,3.29,3.29,0,0,0-4.64-.53,2.9,2.9,0,0,0-.52.53,5.36,5.36,0,0,0-.9,3.25,5.3,5.3,0,0,0,.9,3.23,3.31,3.31,0,0,0,4.67.49A3.24,3.24,0,0,0,246.63,36.3Z" transform="translate(-3 -6)"/><path id="Path_413" data-name="Path 413" class="cls-1" d="M256.16,28.38a5.17,5.17,0,0,1,1.39-1.76,3.19,3.19,0,0,1,2-.59,2.51,2.51,0,0,1,.86.11v3.18h-.08a3.81,3.81,0,0,0-2.95.78,3.87,3.87,0,0,0-1.15,3.13v6.69h-3.64V26.19h3.5v2.19Z" transform="translate(-3 -6)"/><path id="Path_414" data-name="Path 414" class="cls-1" d="M262.47,39a4.75,4.75,0,0,1-1.79-3.52h3.37a2.4,2.4,0,0,0,1,1.74,3.53,3.53,0,0,0,2,.54,3.34,3.34,0,0,0,1.86-.43,1.33,1.33,0,0,0,.66-1.15,1,1,0,0,0-.31-.78,2.41,2.41,0,0,0-.8-.48,6.51,6.51,0,0,0-1.15-.31L266,34.35c-.63-.13-1.23-.27-1.81-.43a5.28,5.28,0,0,1-1.55-.7,3.46,3.46,0,0,1-1.1-1.18,3.55,3.55,0,0,1-.41-1.84,4.19,4.19,0,0,1,.42-1.94,4,4,0,0,1,1.2-1.37,5.27,5.27,0,0,1,1.77-.81,8.19,8.19,0,0,1,2.2-.27,6.38,6.38,0,0,1,4.2,1.23,4.76,4.76,0,0,1,1.68,3.32h-3.29a2.06,2.06,0,0,0-.8-1.57,3.39,3.39,0,0,0-1.84-.44,3.32,3.32,0,0,0-1.72.39,1.25,1.25,0,0,0-.64,1.14.88.88,0,0,0,.32.71,2.7,2.7,0,0,0,.85.42,7,7,0,0,0,1.2.28l1.4.27c.57.13,1.14.27,1.72.43a5.3,5.3,0,0,1,1.57.71,3.67,3.67,0,0,1,1.12,1.23,4,4,0,0,1,.43,2,4,4,0,0,1-.43,1.86,4.15,4.15,0,0,1-1.19,1.38,5.88,5.88,0,0,1-1.82.87,8.4,8.4,0,0,1-2.34.3A7.12,7.12,0,0,1,262.47,39Z" transform="translate(-3 -6)"/><path id="Path_415" data-name="Path 415" class="cls-1" d="M277.53,21v.75h-1.42v3.78h-.89V21.79h-1.43V21Zm2,0,1,3.46h0l1-3.46h1.28v4.53H282V22.1h0c0,.14-.07.28-.11.43s-.08.26-.12.41-.1.3-.14.45L281,25.57h-.84l-.65-2.18c0-.13-.08-.27-.13-.42l-.11-.42-.11-.45h0v3.47h-.81V21Z" transform="translate(-3 -6)"/></g><g id="Symbol"><path id="Path_397" data-name="Path 397" class="cls-2" d="M43.14,20a83.43,83.43,0,0,0-5.76-7.1.84.84,0,0,0-1.18-.07l-.07.07s-2.91,3.24-5.77,7.17c-3.9,5.38-5.92,9.47-5.92,12.34a12.31,12.31,0,0,0,24.62-.07C49.06,29.52,47.08,25.37,43.14,20Z" transform="translate(-3 -6)"/><path id="Path_416" data-name="Path 416" class="cls-3" d="M28.72,16.16A114.15,114.15,0,0,0,20.8,6.39a1.15,1.15,0,0,0-1.63-.1l-.1.1s-4,4.46-7.93,9.87C5.78,23.65,3,29.28,3,33.22a16.93,16.93,0,1,0,33.86-.1C36.86,29.28,34.14,23.57,28.72,16.16Z" transform="translate(-3 -6)"/><path id="Path_417" data-name="Path 417" class="cls-4" d="M36.81,25.41a53.64,53.64,0,0,0-3.61-4.76.5.5,0,0,0-.7-.08l0,0,0,0s-1.83,2.17-3.62,4.8c-2.44,3.6-3.71,6.34-3.71,8.26a7.73,7.73,0,1,0,15.44.87,7.06,7.06,0,0,0,0-.92C40.53,31.8,39.29,29,36.81,25.41Z" transform="translate(-3 -6)"/></g></g></svg>