<?xml version="1.0" encoding="utf-8"?>
<!-- Generator: Adobe Illustrator 23.0.4, SVG Export Plug-In . SVG Version: 6.00 Build 0)  -->
<svg version="1.1" id="Layer_1" xmlns="http://www.w3.org/2000/svg" xmlns:xlink="http://www.w3.org/1999/xlink" x="0px" y="0px"
	 viewBox="0 0 201 41" style="enable-background:new 0 0 201 41;" xml:space="preserve">
<style type="text/css">
	.st0{fill:#002938;}
	.st1{fill:#00B9FF;}
	.st2{fill:#095D98;}
	.st3{fill:#FFFFFF;}
</style>
<g id="Logo" transform="translate(-194.484 -257.687)">
	<g id="Logo-2" transform="translate(250.359 272.098)">
		<path id="Path_398" class="st0" d="M-9,1.5c0.8,0,1.7,0.2,2.4,0.5c0.7,0.3,1.3,0.8,1.9,1.4C-4.1,4-3.7,4.7-3.5,5.4
			C-3.2,6.3-3.1,7.2-3.1,8c0,1-0.2,2-0.5,2.9c-0.6,1.4-1.8,2.6-3.3,3.1c-0.7,0.2-1.5,0.3-2.3,0.3h-5V1.5H-9z M-6.7,11
			c0.6-0.9,0.9-1.9,0.8-3c0-0.6-0.1-1.2-0.2-1.7c-0.1-0.5-0.3-1-0.7-1.4C-7,4.6-7.4,4.3-7.8,4.1c-0.5-0.2-1-0.3-1.5-0.3h-2.2v8.3
			h2.1C-8.3,12.2-7.3,11.8-6.7,11L-6.7,11z"/>
		<path id="Path_399" class="st0" d="M0.6,6.6c0.2-0.5,0.6-0.9,1-1.2C2,5.1,2.5,5,3,5c0.2,0,0.4,0,0.6,0.1v2.1H3.5
			C2.8,7.1,2,7.3,1.4,7.7C0.9,8.3,0.6,9.1,0.6,9.8v4.5h-2.6V5.1h2.5L0.6,6.6L0.6,6.6z"/>
		<path id="Path_400" class="st0" d="M10.3,13.2L10.3,13.2c-0.4,0.4-0.7,0.7-1.2,1c-0.5,0.3-1.1,0.4-1.6,0.3
			c-0.9,0.1-1.8-0.3-2.5-0.9c-0.6-0.7-0.9-1.5-0.9-2.4V5.1h2.5v5.7c0,0.4,0.1,0.9,0.4,1.2c0.3,0.3,0.8,0.5,1.2,0.4
			c0.5,0,1.1-0.2,1.4-0.6c0.4-0.4,0.5-1,0.5-1.5V5.1h2.6v9.2h-2.5V13.2z"/>
		<path id="Path_401" class="st0" d="M16.7,5.1v1.1h0.1c0.3-0.4,0.7-0.7,1.2-1C18.4,5,19,4.9,19.5,4.9c0.6,0,1.2,0.1,1.7,0.4
			c0.5,0.2,1,0.6,1.3,1c0.4,0.5,0.7,1,0.8,1.5c0.4,1.3,0.4,2.7,0,4c-0.2,0.6-0.5,1.1-0.9,1.5c-0.4,0.4-0.8,0.7-1.3,1
			c-0.5,0.2-1.1,0.3-1.7,0.3c-0.6,0-1.2-0.1-1.7-0.4c-0.4-0.2-0.8-0.6-1.1-0.9h0v4h-2.5V5.1H16.7z M20.6,11.8c0.4-0.6,0.6-1.3,0.6-2
			c0-0.7-0.1-1.5-0.5-2.1c-0.4-0.6-1-0.9-1.7-0.8c-0.4,0-0.7,0.1-1,0.2c-0.3,0.2-0.5,0.4-0.7,0.6C17,8,16.9,8.3,16.8,8.6
			c-0.1,0.4-0.1,0.8-0.1,1.2c0,0.7,0.2,1.4,0.6,2c0.4,0.5,1.1,0.8,1.7,0.7C19.6,12.6,20.2,12.3,20.6,11.8L20.6,11.8z"/>
		<path id="Path_402" class="st0" d="M30.5,13.9c-0.1-0.2-0.1-0.4-0.1-0.6h0c-0.1,0.2-0.3,0.3-0.4,0.5c-0.2,0.2-0.4,0.3-0.6,0.4
			c-0.2,0.1-0.5,0.2-0.8,0.3c-0.4,0.1-0.7,0.1-1.1,0.1c-0.9,0-1.7-0.2-2.4-0.7c-0.6-0.5-1-1.3-0.9-2.1c0-0.4,0.1-0.9,0.3-1.3
			c0.2-0.3,0.5-0.6,0.8-0.9c0.4-0.2,0.8-0.4,1.2-0.5c0.5-0.1,1-0.2,1.5-0.3c0.6-0.1,1.2-0.2,1.8-0.3c0.3-0.1,0.6-0.4,0.6-0.7
			c0-0.3-0.1-0.6-0.4-0.8c-0.4-0.2-0.8-0.3-1.2-0.3c-0.5,0-0.9,0.1-1.4,0.3c-0.3,0.2-0.5,0.6-0.5,1h-2.3c0-0.4,0.1-0.8,0.3-1.2
			c0.2-0.4,0.4-0.7,0.8-1c0.4-0.3,0.8-0.5,1.3-0.7c0.6-0.2,1.2-0.3,1.8-0.3c1.4,0,2.5,0.3,3.1,0.9c0.7,0.7,1,1.6,0.9,2.5v4.7
			c0,0.7,0.1,1.1,0.3,1.3v0.1h-2.5C30.6,14.2,30.6,14,30.5,13.9z M29.1,12.7c0.3-0.1,0.5-0.2,0.7-0.4c0.2-0.2,0.3-0.3,0.4-0.6
			c0.1-0.2,0.2-0.4,0.2-0.7V9.7c-0.3,0.1-0.5,0.2-0.8,0.3c-0.3,0.1-0.6,0.2-1,0.2c-0.5,0.1-1,0.3-1.5,0.5c-0.5,0.4-0.6,1.2-0.2,1.7
			c0,0.1,0.1,0.1,0.2,0.2c0.3,0.2,0.7,0.3,1.1,0.3C28.5,12.8,28.8,12.8,29.1,12.7L29.1,12.7z"/>
		<path id="Path_403" class="st0" d="M36.8,1.5v12.8h-2.6V1.5H36.8z"/>
		<path id="Path_404" class="st0" d="M45.1,14.1c-0.8-0.3-1.5-0.8-2-1.4c-0.6-0.6-1-1.3-1.3-2.1c-0.3-0.8-0.5-1.7-0.5-2.7
			c0-0.9,0.1-1.8,0.5-2.6C42,4.5,42.4,3.8,43,3.2c0.6-0.6,1.3-1.1,2-1.4c0.8-0.3,1.8-0.5,2.7-0.5c0.8,0,1.5,0.1,2.2,0.3
			c0.6,0.2,1.2,0.5,1.7,0.9c0.5,0.4,0.8,0.8,1.1,1.4C53,4.4,53.1,5,53.2,5.6h-2.7C50.4,5,50.1,4.4,49.6,4c-0.5-0.4-1.2-0.6-1.9-0.6
			c-0.6,0-1.1,0.1-1.6,0.3c-0.5,0.2-0.8,0.6-1.1,1c-0.3,0.4-0.5,0.9-0.7,1.4C44.1,6.8,44,7.4,44,8c0,0.6,0.1,1.2,0.3,1.8
			c0.2,0.5,0.4,1,0.7,1.4c0.6,0.8,1.6,1.3,2.7,1.3c0.7,0,1.4-0.2,2-0.6c0.5-0.4,0.8-1,0.9-1.6h2.7c0,0.6-0.2,1.1-0.4,1.6
			c-0.3,0.5-0.6,1-1.1,1.4c-0.5,0.4-1.1,0.8-1.7,1c-0.8,0.3-1.6,0.4-2.4,0.4C46.8,14.6,45.9,14.4,45.1,14.1z"/>
		<path id="Path_405" class="st0" d="M56.7,14.2c-1.2-0.5-2.1-1.4-2.6-2.6c-0.5-1.2-0.5-2.6,0-3.8c0.5-1.2,1.4-2.1,2.6-2.6
			c1.3-0.5,2.8-0.5,4.1,0C62,5.7,63,6.7,63.5,7.8c0.5,1.2,0.5,2.6,0,3.8c-0.5,1.2-1.4,2.1-2.6,2.6C59.5,14.7,58.1,14.7,56.7,14.2z
			 M60.6,11.9c0.4-0.6,0.7-1.4,0.6-2.2c0-0.8-0.2-1.5-0.6-2.2c-0.8-1-2.3-1.1-3.3-0.4c-0.1,0.1-0.3,0.2-0.4,0.4
			c-0.4,0.6-0.7,1.4-0.6,2.2c0,0.8,0.2,1.5,0.6,2.2c0.8,1,2.3,1.1,3.3,0.3C60.4,12.1,60.5,12,60.6,11.9z"/>
		<path id="Path_406" class="st0" d="M67.3,6.4c0.3-0.5,0.7-0.8,1.2-1.1c0.9-0.5,2.1-0.5,3-0.1c0.4,0.2,0.8,0.4,1,0.7
			c0.3,0.3,0.5,0.7,0.7,1.1c0.2,0.4,0.2,0.9,0.2,1.4v6h-2.6V8.7c0-0.4-0.1-0.9-0.4-1.2C70.2,7.1,69.7,7,69.3,7c-0.5,0-1,0.2-1.4,0.6
			c-0.4,0.4-0.6,1-0.6,1.5v5.2h-2.6V5.1h2.5L67.3,6.4L67.3,6.4z"/>
		<path id="Path_407" class="st0" d="M75.3,5.1V2.3h2.5v2.9h1.7v1.6h-1.7v4.9c0,0.3,0.1,0.5,0.3,0.7c0.2,0.1,0.4,0.2,0.7,0.2h0.5
			c0.1,0,0.2,0,0.3,0v1.8c-0.1,0-0.3,0-0.4,0c-0.1,0-0.3,0-0.5,0h-0.7c-0.3,0-0.6,0-0.9-0.1c-0.3-0.1-0.6-0.2-0.8-0.3
			c-0.3-0.2-0.5-0.4-0.6-0.7c-0.2-0.3-0.2-0.7-0.2-1.1V6.7H74V5.1H75.3z"/>
		<path id="Path_408" class="st0" d="M82.9,6.6c0.2-0.5,0.6-0.9,1-1.2C84.3,5.1,84.8,5,85.3,5c0.2,0,0.4,0,0.6,0.1v2.1h-0.1
			c-0.7-0.1-1.5,0.1-2.1,0.5c-0.6,0.5-0.9,1.3-0.8,2.1v4.5h-2.6V5.1h2.5L82.9,6.6L82.9,6.6z"/>
		<path id="Path_409" class="st0" d="M92.4,13.9c-0.1-0.2-0.1-0.4-0.1-0.6h0c-0.1,0.2-0.3,0.3-0.4,0.5c-0.2,0.2-0.4,0.3-0.6,0.4
			c-0.2,0.1-0.5,0.2-0.8,0.3c-0.4,0.1-0.7,0.1-1.1,0.1c-0.9,0-1.7-0.2-2.4-0.7c-0.6-0.5-1-1.3-0.9-2.1c0-0.4,0.1-0.9,0.3-1.3
			c0.2-0.3,0.5-0.6,0.8-0.9c0.4-0.2,0.8-0.4,1.2-0.5c0.5-0.1,1-0.2,1.5-0.3c0.6-0.1,1.2-0.2,1.8-0.3c0.3-0.1,0.6-0.4,0.6-0.7
			c0-0.3-0.1-0.6-0.4-0.8c-0.4-0.2-0.8-0.3-1.2-0.3c-0.5,0-0.9,0.1-1.4,0.3c-0.3,0.2-0.5,0.6-0.5,1h-2.3c0-0.4,0.1-0.8,0.3-1.2
			c0.2-0.4,0.4-0.7,0.8-1c0.4-0.3,0.8-0.5,1.3-0.7C89.4,5,90,4.9,90.6,4.9c1.4,0,2.5,0.3,3.1,0.9c0.7,0.7,1,1.6,0.9,2.5v4.7
			c0,0.7,0.1,1.1,0.3,1.3v0.1h-2.5C92.5,14.2,92.4,14,92.4,13.9z M91,12.7c0.3-0.1,0.5-0.2,0.7-0.4c0.2-0.2,0.3-0.3,0.4-0.6
			c0.1-0.2,0.2-0.4,0.2-0.7V9.7C92,9.8,91.8,9.9,91.5,10c-0.3,0.1-0.6,0.2-1,0.2c-0.5,0.1-1,0.3-1.5,0.5c-0.5,0.4-0.6,1.2-0.2,1.7
			c0,0.1,0.1,0.1,0.2,0.2c0.3,0.2,0.7,0.3,1.1,0.3C90.3,12.8,90.7,12.8,91,12.7L91,12.7z"/>
		<path id="Path_410" class="st0" d="M98.4,14.2c-0.6-0.2-1.1-0.6-1.5-1c-0.4-0.4-0.8-1-1-1.5c-0.2-0.6-0.4-1.3-0.4-1.9
			c0-0.6,0.1-1.3,0.3-1.9c0.2-0.6,0.5-1.1,1-1.5c0.4-0.4,0.9-0.8,1.5-1c0.6-0.3,1.3-0.4,2-0.4c0.6,0,1.1,0.1,1.7,0.2
			c0.5,0.2,0.9,0.4,1.3,0.7c0.4,0.3,0.7,0.6,0.9,1.1c0.2,0.4,0.4,0.9,0.5,1.4h-2.5c-0.1-0.4-0.3-0.7-0.6-1c-0.3-0.3-0.7-0.4-1.2-0.4
			c-0.7,0-1.3,0.3-1.7,0.8c-0.4,0.6-0.6,1.4-0.6,2.1c0,0.7,0.2,1.5,0.6,2.1c0.4,0.5,1,0.8,1.7,0.8c0.5,0,0.9-0.1,1.3-0.4
			c0.4-0.3,0.6-0.7,0.6-1.2h2.5c-0.1,0.9-0.5,1.8-1.3,2.5c-0.4,0.3-0.8,0.6-1.3,0.7c-0.6,0.2-1.1,0.3-1.7,0.3
			C99.7,14.6,99.1,14.4,98.4,14.2z"/>
		<path id="Path_411" class="st0" d="M106.2,5.1V2.3h2.5v2.9h1.7v1.6h-1.7v4.9c0,0.3,0.1,0.5,0.3,0.7c0.2,0.1,0.4,0.2,0.7,0.2h0.5
			c0.1,0,0.2,0,0.3,0v1.8c-0.1,0-0.3,0-0.4,0c-0.1,0-0.3,0-0.5,0h-0.7c-0.3,0-0.6,0-0.9-0.1c-0.3-0.1-0.6-0.2-0.8-0.3
			c-0.3-0.2-0.5-0.4-0.6-0.7c-0.2-0.3-0.2-0.7-0.2-1.1V6.7h-1.3V5.1H106.2z"/>
		<path id="Path_412" class="st0" d="M113.6,14.2c-1.2-0.5-2.1-1.4-2.6-2.6c-0.5-1.2-0.5-2.6,0-3.8c0.5-1.2,1.4-2.1,2.6-2.6
			c1.3-0.5,2.8-0.5,4.1,0c1.2,0.5,2.1,1.4,2.6,2.6c0.5,1.2,0.5,2.6,0,3.8c-0.5,1.2-1.4,2.1-2.6,2.6
			C116.3,14.7,114.9,14.7,113.6,14.2z M117.4,11.9c0.4-0.6,0.7-1.4,0.6-2.2c0-0.8-0.2-1.5-0.6-2.2c-0.8-1-2.3-1.1-3.3-0.4
			c-0.1,0.1-0.3,0.2-0.4,0.4c-0.4,0.6-0.7,1.4-0.6,2.2c0,0.8,0.2,1.5,0.6,2.2c0.8,1,2.3,1.1,3.3,0.3C117.2,12.1,117.3,12,117.4,11.9
			z"/>
		<path id="Path_413" class="st0" d="M124.1,6.6c0.2-0.5,0.6-0.9,1-1.2c0.4-0.3,0.9-0.4,1.4-0.4c0.2,0,0.4,0,0.6,0.1v2.1H127
			c-0.7-0.1-1.5,0.1-2.1,0.5c-0.6,0.5-0.9,1.3-0.8,2.1v4.5h-2.6V5.1h2.5L124.1,6.6L124.1,6.6z"/>
		<path id="Path_414" class="st0" d="M128.5,13.7c-0.8-0.6-1.2-1.4-1.3-2.3h2.4c0,0.5,0.3,0.9,0.7,1.2c0.4,0.3,0.9,0.4,1.4,0.4
			c0.5,0,0.9-0.1,1.3-0.3c0.3-0.2,0.5-0.5,0.5-0.8c0-0.2-0.1-0.4-0.2-0.5c-0.2-0.1-0.4-0.3-0.6-0.3c-0.3-0.1-0.5-0.2-0.8-0.2
			c-0.3-0.1-0.6-0.1-0.9-0.2c-0.4-0.1-0.9-0.2-1.3-0.3c-0.4-0.1-0.8-0.3-1.1-0.5c-0.3-0.2-0.6-0.5-0.8-0.8c-0.2-0.4-0.3-0.8-0.3-1.2
			c0-0.4,0.1-0.9,0.3-1.3c0.2-0.4,0.5-0.7,0.8-0.9c0.4-0.3,0.8-0.4,1.2-0.5c0.5-0.1,1-0.2,1.5-0.2c1.1-0.1,2.1,0.2,2.9,0.8
			c0.7,0.6,1.1,1.4,1.2,2.2h-2.3c0-0.4-0.2-0.8-0.6-1c-0.4-0.2-0.8-0.3-1.3-0.3c-0.4,0-0.8,0.1-1.2,0.3c-0.3,0.2-0.5,0.4-0.5,0.8
			c0,0.2,0.1,0.4,0.2,0.5c0.2,0.1,0.4,0.2,0.6,0.3c0.3,0.1,0.6,0.1,0.8,0.2c0.3,0,0.6,0.1,1,0.2c0.4,0.1,0.8,0.2,1.2,0.3
			c0.4,0.1,0.8,0.3,1.1,0.5c0.3,0.2,0.6,0.5,0.8,0.8c0.2,0.4,0.3,0.9,0.3,1.3c0,0.4-0.1,0.9-0.3,1.2c-0.2,0.4-0.5,0.7-0.8,0.9
			c-0.4,0.3-0.8,0.5-1.3,0.6c-0.5,0.1-1.1,0.2-1.6,0.2C130.6,14.6,129.5,14.3,128.5,13.7z"/>
		<path id="Path_415" class="st0" d="M139.1,1.7v0.5h-1v2.5h-0.6V2.2h-1V1.7H139.1z M140.5,1.7l0.7,2.3h0l0.7-2.3h0.9v3h-0.6V2.4h0
			c0,0.1,0,0.2-0.1,0.3c0,0.1-0.1,0.2-0.1,0.3c0,0.1-0.1,0.2-0.1,0.3l-0.5,1.5h-0.6l-0.5-1.5c0-0.1-0.1-0.2-0.1-0.3
			c0-0.1-0.1-0.2-0.1-0.3l-0.1-0.3h0v2.3h-0.6v-3L140.5,1.7z"/>
	</g>
	<g id="Symbol" transform="translate(0 -8)">
		<path id="Path_397" class="st1" d="M225.1,281.1c-1.3-1.6-2.6-3.2-4-4.7c-0.2-0.2-0.6-0.3-0.8,0l0,0c0,0-2,2.2-4,4.8
			c-2.7,3.6-4.1,6.3-4.1,8.2c0,4.5,3.9,8.2,8.7,8.2s8.6-3.7,8.6-8.2C229.3,287.5,227.9,284.7,225.1,281.1z"/>
		<path id="Path_416" class="st2" d="M215,278.5c-1.7-2.3-3.6-4.4-5.5-6.5c-0.3-0.3-0.8-0.3-1.1-0.1l-0.1,0.1c0,0-2.8,3-5.6,6.6
			c-3.8,4.9-5.7,8.7-5.7,11.3c0,6.2,5.3,11.3,11.9,11.3c6.6,0,11.9-5.1,11.8-11.3C220.7,287.3,218.8,283.5,215,278.5z"/>
		<path id="Path_417" class="st3" d="M220.7,284.7c-0.8-1.1-1.6-2.2-2.5-3.2c-0.1-0.1-0.3-0.2-0.5-0.1c0,0,0,0,0,0l0,0
			c0,0-1.3,1.4-2.5,3.2c-1.7,2.4-2.6,4.2-2.6,5.5c-0.2,2.8,2.1,5.3,5.1,5.4s5.5-2,5.7-4.9c0-0.2,0-0.4,0-0.6
			C223.3,289,222.4,287.1,220.7,284.7z"/>
	</g>
</g>
</svg>
